# xmcd
# Track frame offsets:
# 150
# 11948
# 23639
# 35391
# 44518
# 56758
# 66819
# 75999
# 87594
# 99985
# 114204
# 127505
#
# Disc length: 1889 seconds
# Revision: 0
# Processed by: cddbd v1.4PL0 Copyright (c) Steve Scherf et al.
# Submitted via: VisiTrax 2.9.7.197 - For more info visit www.synapsa.com
#
DISCID=8a075f0c
DTITLE=Ernest Tubb - The Legend And The Legacy
DYEAR=1979
DGENRE=Old Time
TTITLE0=with Willie Nelson - Waltz Across Texas
TTITLE1=with George Jones - Half A Mind
TTITLE2=with Loretta Lynn - Thangs A Lot
TTITLE3=Johnny Cash - Jealous Loving Heart
TTITLE4=Marty Robbins - Jounery's End
TTITLE5=Ferlin Husky - Set Up To Glasses
TTITLE6=Merle Haggard - Walkin' The Floor Over You
TTITLE7=Charlie Rich - You're The Only Good Thing
TTITLE8=Conway Twitty - Last Blue Yodel
TTITLE9=Johnny Paycheck - Let's Say Goodbye Like We Said Hello
TTITLE10=Justin Tubb - Blue Eyed Elaine
TTITLE11=Carl Smith - Our Baby's Book
EXTD=Cachet Records CSPS 1451 B - 1979 - LP on CD!
EXTT0=
EXTT1=
EXTT2=
EXTT3=
EXTT4=
EXTT5=
EXTT6=
EXTT7=
EXTT8=
EXTT9=
EXTT10=
EXTT11=
PLAYORDER=
